<svg width="115" height="25" viewBox="0 0 115 25" fill="none" xmlns="http://www.w3.org/2000/svg">
<path d="M0 22.2462H1.32942C1.99807 22.2462 3.32749 22.1046 3.32749 20.5077V6.12005C3.32749 5.25475 3.26456 3.18589 1.59688 3.18589H0.0629312L1.80141 0.125863H104.285V3.18589H9.99819C9.13289 3.18589 8.00013 3.38256 8.00013 5.12103V9.65207C8.19679 10.1791 8.99916 10.3836 9.40035 10.3836C9.80153 10.3836 11.2018 10.3128 11.2018 8.11811H13.192V15.5125H11.1939C11.1939 14.8439 10.4544 13.7269 9.46328 13.6482C8.66091 13.5853 8.00013 13.8527 8.00013 14.9226V20.5156C8.00013 21.1134 8.7317 22.254 10.4623 22.254H11.658V24.6533H0V22.2462Z" fill="white"/>
<path d="M59.1475 6.65498C59.1475 7.18989 59.8082 7.72481 60.2094 7.85067C60.6814 7.52028 63.1436 6.12005 65.0709 6.12005C66.9981 6.12005 68.005 7.11909 68.005 8.65304V15.9845H63.3403V10.3128C63.3403 9.58127 63.1436 9.05423 62.475 8.98343C61.8063 8.91263 60.0757 10.3207 59.6116 10.9894V21.1134C59.6116 22.0495 60.5477 22.7103 61.3422 22.7103V24.6454H53.2162V22.6474C54.0186 22.6474 54.8839 22.3799 54.9468 21.1764V9.91166C54.9468 9.58127 54.4119 8.65304 53.2162 8.65304V6.64711H59.1475V6.65498ZM114.92 6.65498H106.794V8.6609C107.99 8.6609 108.525 9.58913 108.525 9.91952V21.1842C108.462 22.3799 107.589 22.6552 106.794 22.6552V24.6533H114.92V22.7103C114.118 22.7103 113.19 22.0495 113.19 21.1134V10.0611C113.19 9.25876 114.055 8.6609 114.92 8.6609V6.65498ZM41.1649 6.65498C41.1649 7.18989 41.8257 7.72481 42.2268 7.85067C42.6988 7.52028 45.161 6.12005 47.0883 6.12005C49.0234 6.12005 50.0224 7.11909 50.0224 8.65304V15.9845H45.3577V10.3128C45.3577 9.58127 45.161 9.05423 44.4924 8.98343C43.8237 8.91263 42.0931 10.3128 41.629 10.9815V21.1055C41.629 22.0416 42.5651 22.7024 43.3596 22.7024V24.6376H35.2336V22.6395C36.036 22.6395 36.9013 22.372 36.9642 21.1685V9.9038C36.9642 9.57341 36.4293 8.64518 35.2336 8.64518V6.63924H41.1649V6.65498ZM95.1992 6.65498C95.1992 7.18989 95.8678 7.72481 96.269 7.85067C96.741 7.52028 99.2032 6.12005 101.13 6.12005C103.058 6.12005 104.065 7.11909 104.065 8.65304V15.9845H99.3998V10.3128C99.3998 9.58127 99.2032 9.05423 98.5345 8.98343C97.8659 8.91263 96.1353 10.3128 95.6712 10.9815V21.1055C95.6712 22.0416 96.5994 22.7024 97.4018 22.7024V24.6376H89.2758V22.6395C90.0782 22.6395 90.9356 22.372 91.0064 21.1685V9.9038C91.0064 9.57341 90.4715 8.64518 89.2758 8.64518V6.63924H95.1992V6.65498ZM31.7095 19.0603H27.0526V20.8617C27.0526 21.5933 26.9188 23.1272 24.7241 23.1272C22.5294 23.1272 21.8607 21.6562 21.8607 20.5942V16.8026C21.8607 16.4644 22.1282 16.0002 22.5923 16.0002H31.7173V11.1388C31.7173 8.93623 31.2532 8.26759 30.3171 7.33936C29.381 6.41112 26.1164 6.14365 24.6533 6.14365C20.9246 6.14365 19.7211 6.6707 18.6591 7.54387C17.5893 8.40917 17.1881 10.2106 17.1881 11.54V19.076C17.1881 21.0741 17.5893 22.4743 18.8558 23.7408C20.1223 24.9994 23.9847 24.9994 24.787 24.9994C25.5894 24.9994 28.2482 25.0702 30.1834 23.67C32.1185 22.2541 31.7095 19.0603 31.7095 19.0603ZM21.8529 10.7927C21.8529 9.72286 22.1833 8.126 24.5196 8.126C26.8559 8.126 27.0526 9.86446 27.0526 10.7927V13.1919C27.0505 13.4041 26.9653 13.607 26.8153 13.757C26.6652 13.9071 26.4623 13.9923 26.2502 13.9943H22.6552C22.2619 13.9943 21.8529 13.6639 21.8529 13.2628V10.7927ZM85.1459 21.1134V11.1231C85.1459 9.58913 85.0751 7.99226 83.4782 6.85163C81.8814 5.71887 79.2776 5.78967 78.2786 5.78967C77.2795 5.78967 73.952 5.78967 72.4102 7.52028C70.8841 9.25876 71.1437 10.9186 71.1437 11.5872H75.5096C75.5096 11.5872 75.8085 9.32169 76.4142 8.72384C77.0121 8.12599 78.6089 7.45733 79.844 8.52717C80.3002 8.92049 80.4812 9.42394 80.4812 9.99819V12.8616C80.4812 13.129 80.2137 13.5302 79.8754 13.5302C79.8754 13.5302 73.8104 13.6639 72.7485 14.4584C71.6865 15.2608 70.7504 15.7879 70.7504 18.722C70.7504 21.6562 71.482 22.789 72.3473 23.3868C73.2126 23.9846 73.6138 24.6533 77.547 24.6533H86.8765V22.7103C86.0742 22.7103 85.1459 22.0495 85.1459 21.1134ZM80.4812 22.254C80.4812 22.4192 80.2137 22.6552 80.0092 22.6552H77.7122C76.076 22.6552 75.6118 21.255 75.6118 20.3897V17.8253C75.6118 15.3316 78.2078 15.3867 79.2383 15.3867C80.2766 15.3867 80.4733 16.252 80.4733 16.8262V22.254H80.4812ZM110.547 3.16229C112.883 3.16229 114.771 2.45432 114.771 1.58115C114.771 0.707977 112.883 0 110.547 0C108.218 0 106.33 0.707977 106.33 1.58115C106.33 2.45432 108.218 3.16229 110.547 3.16229Z" fill="white"/>
</svg>
